<svg version="1.1" id="Layer_1" xmlns="http://www.w3.org/2000/svg" xmlns:xlink="http://www.w3.org/1999/xlink" x="0px" y="0px"
	 width="100%" viewBox="0 0 192 192" enable-background="new 0 0 192 192" xml:space="preserve">
<path fill="#FFFDFD" opacity="1.000000" stroke="none" 
	d="
M49.000000,1.000000 
	C59.020893,1.000000 69.041786,1.000000 79.398369,1.324090 
	C75.447166,3.946808 74.279617,7.734990 74.932770,12.211346 
	C75.338722,14.993503 75.413071,18.175892 76.852631,20.386547 
	C80.531380,26.035809 84.669907,31.430740 89.054161,36.560192 
	C92.145538,40.177021 94.990646,43.535793 95.249512,48.659534 
	C95.513214,53.878895 99.255867,57.178513 103.516487,56.723732 
	C107.768333,56.269882 111.394257,52.212746 110.328522,47.324234 
	C109.012894,41.289425 106.912720,35.237415 104.012527,29.800413 
	C101.973648,25.978109 97.722878,23.403374 95.041473,19.834520 
	C92.921776,17.013296 90.771843,13.659799 90.285065,10.303418 
	C89.637733,5.839971 87.870842,2.910669 84.000000,1.000000 
	C120.311508,1.000000 156.623016,1.000000 192.967255,1.000000 
	C192.967255,64.939720 192.967255,128.879471 192.967255,192.909607 
	C129.098816,192.909607 65.197464,192.909607 1.148057,192.909607 
	C1.148057,129.000244 1.148057,65.000168 1.148057,1.000000 
	C15.413071,1.000000 29.737877,1.000000 44.341034,1.287220 
	C40.366947,3.095504 38.962040,6.384579 39.061096,10.580915 
	C39.278172,19.777050 43.337330,27.167524 49.903553,33.321903 
	C54.917088,38.020988 59.591320,42.659916 59.883499,50.362419 
	C60.036049,54.384029 63.288193,56.856461 67.519951,56.700569 
	C71.839577,56.541435 74.011101,53.602215 74.645988,49.637028 
	C74.954216,47.711998 74.728683,45.652710 74.461510,43.692814 
	C73.325714,35.360886 68.605766,29.151514 62.848541,23.333530 
	C59.674519,20.126019 56.371117,16.338915 55.051567,12.199322 
	C53.682369,7.903975 53.218090,3.591824 49.000000,1.000000 
M129.499939,67.990173 
	C96.515778,67.990875 63.531601,67.974174 30.547466,68.006050 
	C23.426928,68.012932 18.956640,71.631859 18.913935,78.235962 
	C18.759907,102.055077 18.368462,125.893929 19.139427,149.690567 
	C19.691883,166.742599 33.854397,179.083191 50.953674,179.122864 
	C70.277634,179.167679 89.601883,179.169846 108.925819,179.119461 
	C124.729645,179.078247 136.886597,169.089066 140.181091,153.521362 
	C140.688293,151.124680 141.017853,148.690414 141.449020,146.159409 
	C142.702682,146.045013 143.673615,145.907333 144.648056,145.874786 
	C163.007172,145.261505 176.583862,134.171417 180.756882,116.425156 
	C186.487900,92.053314 169.330307,65.940269 142.490997,67.948914 
	C138.515198,68.246468 134.497925,67.990204 129.499939,67.990173 
z"/>
<path fill="#FF5B35" opacity="1.000000" stroke="none" 
	d="
M48.600006,1.000000 
	C53.218090,3.591824 53.682369,7.903975 55.051567,12.199322 
	C56.371117,16.338915 59.674519,20.126019 62.848541,23.333530 
	C68.605766,29.151514 73.325714,35.360886 74.461510,43.692814 
	C74.728683,45.652710 74.954216,47.711998 74.645988,49.637028 
	C74.011101,53.602215 71.839577,56.541435 67.519951,56.700569 
	C63.288193,56.856461 60.036049,54.384029 59.883499,50.362419 
	C59.591320,42.659916 54.917088,38.020988 49.903553,33.321903 
	C43.337330,27.167524 39.278172,19.777050 39.061096,10.580915 
	C38.962040,6.384579 40.366947,3.095504 44.809692,1.287220 
	C46.066669,1.000000 47.133339,1.000000 48.600006,1.000000 
z"/>
<path fill="#FF5A33" opacity="1.000000" stroke="none" 
	d="
M83.600006,1.000000 
	C87.870842,2.910669 89.637733,5.839971 90.285065,10.303418 
	C90.771843,13.659799 92.921776,17.013296 95.041473,19.834520 
	C97.722878,23.403374 101.973648,25.978109 104.012527,29.800413 
	C106.912720,35.237415 109.012894,41.289425 110.328522,47.324234 
	C111.394257,52.212746 107.768333,56.269882 103.516487,56.723732 
	C99.255867,57.178513 95.513214,53.878895 95.249512,48.659534 
	C94.990646,43.535793 92.145538,40.177021 89.054161,36.560192 
	C84.669907,31.430740 80.531380,26.035809 76.852631,20.386547 
	C75.413071,18.175892 75.338722,14.993503 74.932770,12.211346 
	C74.279617,7.734990 75.447166,3.946808 79.867027,1.324090 
	C81.066673,1.000000 82.133339,1.000000 83.600006,1.000000 
z"/>
<path fill="#FF552E" opacity="1.000000" stroke="none" 
	d="
M129.999893,67.990173 
	C134.497925,67.990204 138.515198,68.246468 142.490997,67.948914 
	C169.330307,65.940269 186.487900,92.053314 180.756882,116.425156 
	C176.583862,134.171417 163.007172,145.261505 144.648056,145.874786 
	C143.673615,145.907333 142.702682,146.045013 141.449020,146.159409 
	C141.017853,148.690414 140.688293,151.124680 140.181091,153.521362 
	C136.886597,169.089066 124.729645,179.078247 108.925819,179.119461 
	C89.601883,179.169846 70.277634,179.167679 50.953674,179.122864 
	C33.854397,179.083191 19.691883,166.742599 19.139427,149.690567 
	C18.368462,125.893929 18.759907,102.055077 18.913935,78.235962 
	C18.956640,71.631859 23.426928,68.012932 30.547466,68.006050 
	C63.531601,67.974174 96.515778,67.990875 129.999893,67.990173 
M161.331253,104.177055 
	C158.776337,93.340752 151.380417,88.355942 141.435150,90.816154 
	C141.435150,101.652100 141.435150,112.496078 141.435150,123.282425 
	C154.158829,124.718781 161.682495,117.663925 161.331253,104.177055 
z"/>
<path fill="#FFF8F7" opacity="1.000000" stroke="none" 
	d="
M161.398071,104.574127 
	C161.682495,117.663925 154.158829,124.718781 141.435150,123.282425 
	C141.435150,112.496078 141.435150,101.652100 141.435150,90.816154 
	C151.380417,88.355942 158.776337,93.340752 161.398071,104.574127 
z"/>
</svg>